<?xml version="1.0" encoding="utf-8"?>
<!-- Generator: Adobe Illustrator 16.0.0, SVG Export Plug-In . SVG Version: 6.00 Build 0)  -->
<!DOCTYPE svg PUBLIC "-//W3C//DTD SVG 1.1//EN" "http://www.w3.org/Graphics/SVG/1.1/DTD/svg11.dtd">
<svg version="1.1" id="Layer_1" xmlns="http://www.w3.org/2000/svg" xmlns:xlink="http://www.w3.org/1999/xlink" x="0px" y="0px"
	 width="191px" height="261.719px" viewBox="0 0 191 261.719" enable-background="new 0 0 191 261.719" xml:space="preserve">
<g>
	<path fill="none" stroke="#000000" stroke-miterlimit="10" d="M112.167,29.333c0,0-0.904,52.882-2.792,74.917
		c-2.625,30.645-8.102,70.734-8.125,78.5c-0.029,9.891,6.375,17.5,15.375,27.5s20.598,27.109,32.875,3.25
		c6.625-12.875-10-24.875-8.125-64.25c0.34-7.127,1.059-21.057,8.625-119.917"/>
	<path fill="none" stroke="#000000" stroke-miterlimit="10" d="M103,200.75c1.278-0.165,1.625,1.073,5.292,12.841
		c1.711,5.491,4.19,10.132,6.586,16.222c0.767,1.947-2.503,5.938-5.972,5.625c-2.596-0.233-10.781-11.875-10.344-16.5
		S99.125,201.25,103,200.75z"/>
	<path fill="none" stroke="#000000" stroke-miterlimit="10" d="M191,250.5c0,0-60.682-8.167-64.841-11.5s-8.825-20-12.825-26
		c-2.881-4.32-2.294-6.773-0.938-7.535"/>
	<g>
		<g>
			<path fill="none" stroke="#000000" stroke-miterlimit="10" d="M112.396,205.465c0.526-0.297,1.17-0.338,1.771-0.132
				c0.162,0.055,0.378,0.116,0.646,0.179"/>
			<path fill="none" stroke="#000000" stroke-miterlimit="10" stroke-dasharray="5.2482,5.2482" d="M120.018,206.128
				c9.012,0.376,25.979-1.835,37.982-18.294c7.598-10.419,7.98-0.219,28.766,14.679"/>
			<path fill="none" stroke="#000000" stroke-miterlimit="10" d="M188.923,204.023c0.673,0.461,1.364,0.926,2.077,1.394"/>
		</g>
	</g>
	<path fill="none" stroke="#000000" stroke-miterlimit="10" d="M164.916,190.25c1.833-0.166,1.334,1.25,0.667,13
		s1.022,20.334-0.03,21.834s-3.08,4.61-6.387,1.083c-0.937-1,0.643-9.574,1.167-15.667
		C160.75,205.667,159.416,190.75,164.916,190.25z"/>
	<path fill="none" stroke="#000000" stroke-miterlimit="10" d="M191,195.833c0,0-16.242-4.785-17.917-5.595s-4,0.209-4.25,2.402
		c-0.25,2.192-0.917,17.859,0.388,22.243c0.955,3.209-0.138,11.116,1.195,12.449c2.25,2.25,4.834,1.167,19.75-0.5"/>
</g>
<g>
	<path fill="none" stroke="#000000" stroke-miterlimit="10" d="M29.167,1.667c0,27.158-1.435,49.99-13.259,75.165
		c-5.085,10.821-3.231,22.819,13.259,22.501C46.5,99,55.938,102.181,64.813,98.625c4.488-1.798,18.718,5.587,20.5,3.063
		c3-4.25,14.813-11.063,4.344-28.509C82.777,61.714,61.75,32.25,62.5,0"/>
	<path fill="none" stroke="#000000" stroke-miterlimit="10" d="M28.917,103.667c-12,0.083-15.083-6.167-16.53-5.268
		c-4.306,2.676,8.614,17.476,9.946,18.935c3.547,3.882,2.833,6.5,15.167,2.667c3.51-1.091,8.89,0.649,13.039-0.668
		c1.324-0.42,11.436-6.263,11.294-10.332C61.541,100.602,34.178,103.63,28.917,103.667z"/>
	<path fill="none" stroke="#000000" stroke-miterlimit="10" d="M59.375,106.542c-0.588,1.104-0.315,3.31,9.25,7.208
		c1.125,0.458,2.321-0.883,5.292,1.458c1.375,1.083,5.875,1.042,6.875,0.875s2.792-3.417,2.542-5.542S69.083,102.284,68,102.219
		C64.333,102,61.835,101.927,59.375,106.542z"/>
	<path fill="none" stroke="#000000" stroke-miterlimit="10" d="M19.375,125.188c-2.038,0.113-2.063,2.75-1.938,5.25
		s6.375,0.625,7.875,0.75s6.5,0.25,8.125,1.063s9.288,0.354,9.625,0c1.433-1.503,3.25-2.313,0.938-4.688s-1.375-5.313-4.125-5.375
		s0.512,5.258-5.688,5.258C23.25,127.445,25,124.875,19.375,125.188z"/>
	<path fill="none" stroke="#000000" stroke-miterlimit="10" d="M66.832,112.994c-0.643,8.899,9.027,8.179,8.918,12.506
		c-0.187,7.442,0.098,3.371-9,15.25C60.123,149.404,48,171.019,43,246.25"/>
	<path fill="none" stroke="#000000" stroke-miterlimit="10" d="M26.082,262.001c1.582-5.934,1.89-21.693,2.267-39.421"/>
	<g>
		<g>
			<path fill="none" stroke="#000000" stroke-miterlimit="10" d="M28.349,222.58c0.018-0.829,0.036-1.662,0.054-2.499"/>
			<path fill="none" stroke="#000000" stroke-miterlimit="10" stroke-dasharray="5.0409,5.0409" d="M28.515,215.042
				c0.32-13.705,0.788-27.907,1.984-39.207c2.015-19.026,7.159-46.564,9.249-68.584C42.255,80.835,57.75,79.5,63,80.75
				c5.124,1.22,10.008,8.632,4.895,27.348"/>
			<path fill="none" stroke="#000000" stroke-miterlimit="10" d="M67.226,110.53c-0.212,0.895-0.34,1.713-0.394,2.463"/>
		</g>
	</g>
	<path fill="none" stroke="#000000" stroke-miterlimit="10" d="M0,261c0-19.833,12.08-27.762,17.395-65.75
		c6.938-49.583-0.92-56.572,1.438-59c2.833-2.916,3.417-0.75,5.834-0.5s14.167,0.25,15.167-0.333s5.375,0.25,5.271,3.25
		s-4.437,1.083-3.02,22.5S40.5,192.166,30,218.333s-11.438,43.386-11.438,43.386"/>
</g>
</svg>
