<?xml version="1.0" encoding="utf-8"?>
<!-- Generator: Adobe Illustrator 16.0.0, SVG Export Plug-In . SVG Version: 6.00 Build 0)  -->
<!DOCTYPE svg PUBLIC "-//W3C//DTD SVG 1.1//EN" "http://www.w3.org/Graphics/SVG/1.1/DTD/svg11.dtd">
<svg version="1.1" id="Layer_1" xmlns="http://www.w3.org/2000/svg" xmlns:xlink="http://www.w3.org/1999/xlink" x="0px" y="0px"
	 width="85.04px" height="85.04px" viewBox="0 0 85.04 85.04" enable-background="new 0 0 85.04 85.04" xml:space="preserve">
<g>
	<path fill="none" stroke="#000000" stroke-width="2" stroke-miterlimit="10" d="M8.482,25.77c0,7.25,4.25,21,18.75,19.875
		s14.023,4.152,18.375,5.25c2.5,0.631,15.875,1.25,20-2.625s11.875-7.5,10.859-24.625"/>
	<path fill="none" stroke="#000000" stroke-width="2" stroke-miterlimit="10" d="M26.857,51.362c-5.625,0-10.5,5.326-9.875,6.907
		c0.462,1.168,0.625,3.125,5,3.125c3.944,0,3.625-2.375,8.125-2.5c3.249-0.09,1.984,1.4,7.125,1.4c2.864,0,2.213-1.57,2.102-3.606
		C39.26,55.348,35.233,51.362,26.857,51.362z"/>
</g>
</svg>
