<?xml version="1.0" encoding="utf-8"?>
<!-- Generator: Adobe Illustrator 16.0.0, SVG Export Plug-In . SVG Version: 6.00 Build 0)  -->
<!DOCTYPE svg PUBLIC "-//W3C//DTD SVG 1.1//EN" "http://www.w3.org/Graphics/SVG/1.1/DTD/svg11.dtd">
<svg version="1.1" id="Layer_1" xmlns="http://www.w3.org/2000/svg" xmlns:xlink="http://www.w3.org/1999/xlink" x="0px" y="0px"
	 width="85.04px" height="85.04px" viewBox="0 0 85.04 85.04" enable-background="new 0 0 85.04 85.04" xml:space="preserve">
<g>
	<path fill="none" stroke="#000000" stroke-width="2" stroke-miterlimit="10" d="M9.936,19.27
		c-0.47,15.616-1.701,19.23,4.089,24.302c3,2.626,23.286-1.302,30.661,4.448c4.168,3.25,8.426,2.375,14.375,2.375
		c6.375,0,11.538-4.723,14.875-10.125c2.625-4.25,1.25-20.25,1.25-20.25"/>
	<path fill="none" stroke="#000000" stroke-width="2" stroke-miterlimit="10" d="M31.56,50.502
		c7.614,0.465,13.375-0.982,13.375,4.518c0,3.75-10.5,10.764-20.374,10.75c-12.381-0.018-9.125-9.5-6.5-12.875
		C19.488,51.06,23.1,49.985,31.56,50.502z"/>
</g>
</svg>
