<?xml version="1.0" encoding="utf-8"?>
<!-- Generator: Adobe Illustrator 16.0.0, SVG Export Plug-In . SVG Version: 6.00 Build 0)  -->
<!DOCTYPE svg PUBLIC "-//W3C//DTD SVG 1.1//EN" "http://www.w3.org/Graphics/SVG/1.1/DTD/svg11.dtd">
<svg version="1.1" id="Layer_1" xmlns="http://www.w3.org/2000/svg" xmlns:xlink="http://www.w3.org/1999/xlink" x="0px" y="0px"
	 width="85.04px" height="85.04px" viewBox="0 0 85.04 85.04" enable-background="new 0 0 85.04 85.04" xml:space="preserve">
<g>
	<path fill="none" stroke="#000000" stroke-width="2" stroke-miterlimit="10" d="M5.767,23.474c0,2.875,0.586,13.409,10.25,14.125
		c6.75,0.5,2.375,4.625,12.654,5.479c3.373,0.28,1.846,5.021,9.846,4.896c4.876-0.076,1.496,4.75,10.125,4.75c4.35,0,3-1.5,8-1.5
		s9.25,5.125,13.75,2.25s0.65-7.812,7.125-15.875c1.954-2.434,1.75-17.25,1.75-17.25"/>
	<path fill="none" stroke="#000000" stroke-width="2" stroke-miterlimit="10" d="M16.517,43.599
		c-2.457-0.437-9.262,13.297-2.563,18.938c1.188,1,5.25,2.063,11.25,2.125s17.524,0.381,19.563-4.25
		c0.688-1.563-6.313-7.938-8-8.875s-5.375-1.688-6.5-3.188s-5.688,0.125-6.938-1.75S19.329,44.099,16.517,43.599z"/>
</g>
</svg>
