<?xml version="1.0" encoding="utf-8"?>
<!-- Generator: Adobe Illustrator 16.0.0, SVG Export Plug-In . SVG Version: 6.00 Build 0)  -->
<!DOCTYPE svg PUBLIC "-//W3C//DTD SVG 1.1//EN" "http://www.w3.org/Graphics/SVG/1.1/DTD/svg11.dtd">
<svg version="1.1" id="Layer_1" xmlns="http://www.w3.org/2000/svg" xmlns:xlink="http://www.w3.org/1999/xlink" x="0px" y="0px"
	 width="85.04px" height="85.04px" viewBox="0 0 85.04 85.04" enable-background="new 0 0 85.04 85.04" xml:space="preserve">
<g>
	<path fill="none" stroke="#000000" stroke-width="2" stroke-miterlimit="10" d="M17.937,20.412c0,4.417,2.268,1.423,1.668,17.5
		c-0.084,2.25,2.299,3.921,3.666,4.833c1,0.667,7.502-0.973,9.334,0.61s5.912-0.369,8.416,1.89c4.249,3.834,5.665,0.918,6.999,3.084
		s3.584,1.334,6.584,2.75s8.418-0.668,12.5,4.416"/>
	<path fill="none" stroke="#000000" stroke-width="2" stroke-miterlimit="10" d="M27.271,46.162
		c-5.395-0.483-8.084,1.416-7.25,11.083s16.25,7,20.75,7.167c4.499,0.167,14.581-1.167,15.915-6.5s-6.918-4.584-7.75-4.667
		s-4.917,0.834-6.999-1.166s-5.498-1.416-7.832-3S32.854,46.662,27.271,46.162z"/>
</g>
</svg>
