<?xml version="1.0" encoding="utf-8"?>
<!-- Generator: Adobe Illustrator 16.0.0, SVG Export Plug-In . SVG Version: 6.00 Build 0)  -->
<!DOCTYPE svg PUBLIC "-//W3C//DTD SVG 1.1//EN" "http://www.w3.org/Graphics/SVG/1.1/DTD/svg11.dtd">
<svg version="1.1" id="Layer_1" xmlns="http://www.w3.org/2000/svg" xmlns:xlink="http://www.w3.org/1999/xlink" x="0px" y="0px"
	 width="85.04px" height="85.04px" viewBox="0 0 85.04 85.04" enable-background="new 0 0 85.04 85.04" xml:space="preserve">
<g>
	<path fill="none" stroke="#000000" stroke-width="2" stroke-miterlimit="10" d="M23.918,16.561
		c-1.764,5.419-1.499,20.001,3.333,25.167c4.833,5.167,6.014,3.5,9.34,4s2.66,4.666,6.493,5c3.833,0.332,5.493,0.158,6.16,0.994
		c2.546,3.195,4.296-0.867,7.108,2.258c1.361,1.512,2.898,4.582,14.731,3.748"/>
	<path fill="none" stroke="#000000" stroke-width="2" stroke-miterlimit="10" d="M20.999,55.479
		c-0.56,10.252,1.917,12.668,4.917,12.834c3,0.166,1.979-1.42,5.407-1.252c3.429,0.166,1.093,1.428,4.593,1.418
		c3.5-0.008,2.591-1.455,4.758-1.455s2.291,0.826,4.958,0.826s8.214-2.168,10.787-5.451c1.833-2.338-1.656-5.609-4.752-5.688
		c-9.003-0.23-4.006-3.143-9.75-3.064c-6.106,0.084-3.737-3.238-8.904-3.238s-4.263-2.898-6.927-2.848
		C24.345,47.594,21.467,46.885,20.999,55.479z"/>
	<path fill="none" stroke="#000000" stroke-width="2" stroke-miterlimit="10" d="M13.958,40.394
		c0.023,3.252-0.354,13.141,2.961,11.833c3.582-1.414,2.832-4.727,2.832-8.164c0-3.436,0.75-5.166-2.167-8.166
		C14.489,32.714,13.934,37.142,13.958,40.394z"/>
</g>
</svg>
