<?xml version="1.0" encoding="utf-8"?>
<!-- Generator: Adobe Illustrator 16.0.0, SVG Export Plug-In . SVG Version: 6.00 Build 0)  -->
<!DOCTYPE svg PUBLIC "-//W3C//DTD SVG 1.1//EN" "http://www.w3.org/Graphics/SVG/1.1/DTD/svg11.dtd">
<svg version="1.1" id="Layer_1" xmlns="http://www.w3.org/2000/svg" xmlns:xlink="http://www.w3.org/1999/xlink" x="0px" y="0px"
	 width="85.04px" height="85.04px" viewBox="0 0 85.04 85.04" enable-background="new 0 0 85.04 85.04" xml:space="preserve">
<g>
	<path fill="none" stroke="#000000" stroke-width="2" stroke-miterlimit="10" d="M25.199,16.53c-4.332,2.668-5.248,14.418,0,22
		c5.369,7.757,6.499,8.089,9.418,8.328c4.167,0.34,5.418,0.424,6.334,1.34s6.575-0.818,7.583,0.918
		c1.5,2.582,6.294-1.678,8.499,3.582c1.084,2.584,4.002,0.416,6.668,2.084c2.666,1.666,6.082,5.5,6.082,5.5"/>
	<path fill="none" stroke="#000000" stroke-width="2" stroke-miterlimit="10" d="M17.284,32.448c2.25-0.667,4.917,4.583,5.75,5.958
		s-0.583,5.543,4.417,8.959s5.333,2.082,7.833,2.082s1.917,2.252,5.917,2.918s4.417-0.084,6,1.25
		c1.583,1.332,3.584,0.248,5.25,1.166c1.666,0.916,2.916,2.666,5.416,3.5s5.75,0.832,6,3.75c0.25,2.916-3.336,5.416-4.668,6.25
		c-1.334,0.832-3.25-0.834-5.166-1.334c-1.917-0.5-12.083-1.416-17.75-1.666s-15.783-0.672-18.5-12
		c-1.315-5.486,1.316-7.539-2.084-13.834C14.116,36.516,17.284,32.448,17.284,32.448z"/>
</g>
</svg>
