<?xml version="1.0" encoding="utf-8"?>
<!-- Generator: Adobe Illustrator 16.0.0, SVG Export Plug-In . SVG Version: 6.00 Build 0)  -->
<!DOCTYPE svg PUBLIC "-//W3C//DTD SVG 1.1//EN" "http://www.w3.org/Graphics/SVG/1.1/DTD/svg11.dtd">
<svg version="1.1" id="Layer_1" xmlns="http://www.w3.org/2000/svg" xmlns:xlink="http://www.w3.org/1999/xlink" x="0px" y="0px"
	 width="85.04px" height="85.04px" viewBox="0 0 85.04 85.04" enable-background="new 0 0 85.04 85.04" xml:space="preserve">
<g>
	<path fill="none" stroke="#000000" stroke-width="2" stroke-miterlimit="10" d="M30.488,29.742
		c-3.709,4.433-5.506,6.563-4.417,15.256c0.584,4.66,9.747-5.143,12.479-8.009c2.855-2.997,2.205-11.015,0.205-12.685
		C37.193,23,33.95,25.605,30.488,29.742z"/>
	<path fill="none" stroke="#000000" stroke-width="2" stroke-miterlimit="10" d="M46.488,24.109c-1.328-0.284-1.75,3.548-0.75,4.215
		s2-0.166,2.832-1.333C49.404,25.824,47.822,24.394,46.488,24.109z"/>
	<path fill="none" stroke="#000000" stroke-width="2" stroke-miterlimit="10" d="M34.654,61.074c0,0-2.225-11.863,1.417-14.839
		c7.333-5.994,15.167-16.744,16.749-17.078c1.584-0.334,6.084-0.666,6.418,4c0.332,4.666-1.25,14.583-1.168,16.667"/>
</g>
</svg>
