<?xml version="1.0" encoding="utf-8"?>
<!-- Generator: Adobe Illustrator 16.0.0, SVG Export Plug-In . SVG Version: 6.00 Build 0)  -->
<!DOCTYPE svg PUBLIC "-//W3C//DTD SVG 1.1//EN" "http://www.w3.org/Graphics/SVG/1.1/DTD/svg11.dtd">
<svg version="1.1" id="Layer_1" xmlns="http://www.w3.org/2000/svg" xmlns:xlink="http://www.w3.org/1999/xlink" x="0px" y="0px"
	 width="85.04px" height="85.04px" viewBox="0 0 85.04 85.04" enable-background="new 0 0 85.04 85.04" xml:space="preserve">
<g>
	<path fill="none" stroke="#000000" stroke-width="2" stroke-miterlimit="10" d="M32.349,62.902c0-1.938-1-11.25,2.063-13.688
		S49.474,37.59,50.349,36.527s5.438-0.5,6.75,3.25s0,20.25,0,20.25"/>
	<path fill="none" stroke="#000000" stroke-width="2" stroke-miterlimit="10" d="M27.662,34.99c-0.587,3.932-0.625,6.912,2.75,8.475
		s12.062-6.824,13.187-8.475c1.125-1.65,1.571-4.022,1.625-10.4c0.03-3.5-4.063-2.836-6.875-0.605
		C35.537,26.215,28.162,31.641,27.662,34.99z"/>
	<path fill="none" stroke="#000000" stroke-width="2" stroke-miterlimit="10" d="M52.974,23.402
		c2.193-0.089,3.375,1.875,1.688,6.313s-5.75,7.813-6.938,7.5s-2.875-2.938-4.938-3.438c-2.062-0.5-2.874-3.125-0.688-4.438
		C44.286,28.027,48.349,23.59,52.974,23.402z"/>
</g>
</svg>
