<?xml version="1.0" encoding="utf-8"?>
<!-- Generator: Adobe Illustrator 16.0.0, SVG Export Plug-In . SVG Version: 6.00 Build 0)  -->
<!DOCTYPE svg PUBLIC "-//W3C//DTD SVG 1.1//EN" "http://www.w3.org/Graphics/SVG/1.1/DTD/svg11.dtd">
<svg version="1.1" id="Layer_1" xmlns="http://www.w3.org/2000/svg" xmlns:xlink="http://www.w3.org/1999/xlink" x="0px" y="0px"
	 width="85.04px" height="85.04px" viewBox="0 0 85.04 85.04" enable-background="new 0 0 85.04 85.04" xml:space="preserve">
<g>
	<path fill="none" stroke="#000000" stroke-width="2" stroke-miterlimit="10" d="M24.757,65.427c0,0,0.375-14.438,5.375-18.688
		c5-4.25,5.5-1.375,11.625-5.125c6.125-3.75,9.027-3.146,12.5,1.25c1.777,2.25,0.75,21.375,0.75,21.375"/>
	<path fill="none" stroke="#000000" stroke-width="2" stroke-miterlimit="10" d="M26.122,36.114c0,3.377-0.019,8.5,15.26,0
		c7.963-4.43,13.25,0.375,16.75-5.25c4.214-6.772,1.285-11.24-0.75-11.25c-5.375-0.026-8.5,3.375-14.625,1.5
		C39.044,19.977,26.122,32.841,26.122,36.114z"/>
</g>
</svg>
