<?xml version="1.0" encoding="utf-8"?>
<!-- Generator: Adobe Illustrator 16.0.0, SVG Export Plug-In . SVG Version: 6.00 Build 0)  -->
<!DOCTYPE svg PUBLIC "-//W3C//DTD SVG 1.1//EN" "http://www.w3.org/Graphics/SVG/1.1/DTD/svg11.dtd">
<svg version="1.1" id="Layer_1" xmlns="http://www.w3.org/2000/svg" xmlns:xlink="http://www.w3.org/1999/xlink" x="0px" y="0px"
	 width="85.04px" height="85.04px" viewBox="0 0 85.04 85.04" enable-background="new 0 0 85.04 85.04" xml:space="preserve">
<g>
	<path fill="none" stroke="#000000" stroke-width="2" stroke-miterlimit="10" d="M57.458,56.322
		c-0.125-4.625,2.375-13.125,1.75-14.625s-3.617-4.545-6.541-3.369c-6.209,2.5-9.959-1.881-19.584,1.744s-6.92,7.125-7.21,13.125"/>
	<path fill="none" stroke="#000000" stroke-width="2" stroke-miterlimit="10" d="M28.184,30.197
		c-0.385,2.574,0.408,5.408,8.149,6.717c5.508,0.93,13.75,0.979,15.625-1.842c2.906-4.373,0.145-6.648-2.605-6.324
		c-2.75,0.326-0.52,2.074-8.02,1.949c-3.627-0.061-5.375-0.129-6.5-1.055C33.712,28.723,28.377,28.904,28.184,30.197z"/>
</g>
</svg>
