<?xml version="1.0" encoding="utf-8"?>
<!-- Generator: Adobe Illustrator 16.0.0, SVG Export Plug-In . SVG Version: 6.00 Build 0)  -->
<!DOCTYPE svg PUBLIC "-//W3C//DTD SVG 1.1//EN" "http://www.w3.org/Graphics/SVG/1.1/DTD/svg11.dtd">
<svg version="1.1" id="Layer_1" xmlns="http://www.w3.org/2000/svg" xmlns:xlink="http://www.w3.org/1999/xlink" x="0px" y="0px"
	 width="85.04px" height="85.04px" viewBox="0 0 85.04 85.04" enable-background="new 0 0 85.04 85.04" xml:space="preserve">
<g>
	<path fill="none" stroke="#000000" stroke-width="2" stroke-miterlimit="10" d="M26.614,56.447
		c-0.041-11.375-0.469-12.432,3.406-15.924c1.615-1.455,5.155-1.334,8.655-1.334c1.335,0,1.646,1.908,3,2.008
		c5.125,0.375,0.338-1.492,10.875-1.492c2.367,0,6.912,1.666,7.006,5.537c0.169,6.955-2.006,7.08-2.381,11.205"/>
	<path fill="none" stroke="#000000" stroke-width="2" stroke-miterlimit="10" d="M28.052,28.697c-4.244,0.254-2.778,5.59,1,9.125
		c1.75,1.639,11.624,0.822,14.624,0.787c3-0.037,13.901-0.031,14.375-3.412c0.455-3.25-0.375-3.805-5.125-4.43s-7.375,0.32-12.125,0
		S38.551,28.072,28.052,28.697z"/>
</g>
</svg>
