<?xml version="1.0" encoding="utf-8"?>
<!-- Generator: Adobe Illustrator 16.0.0, SVG Export Plug-In . SVG Version: 6.00 Build 0)  -->
<!DOCTYPE svg PUBLIC "-//W3C//DTD SVG 1.1//EN" "http://www.w3.org/Graphics/SVG/1.1/DTD/svg11.dtd">
<svg version="1.1" id="Layer_1" xmlns="http://www.w3.org/2000/svg" xmlns:xlink="http://www.w3.org/1999/xlink" x="0px" y="0px"
	 width="85.04px" height="85.04px" viewBox="0 0 85.04 85.04" enable-background="new 0 0 85.04 85.04" xml:space="preserve">
<g>
	<path fill="none" stroke="#000000" stroke-width="2" stroke-miterlimit="10" d="M62.288,56.395
		c0.5-13.75-1.118-12.902-4.375-14.875c-1.625-0.984-15.501-2.385-21.125,0.875c-10.125,5.871-8.321,7.632-8.375,16.125"/>
	<path fill="none" stroke="#000000" stroke-width="2" stroke-miterlimit="10" d="M27.201,43.756c-3.375,0-4.525-0.529-4.538-6.861
		c-0.009-4.375,7.125-7.334,10.375-7.104c3.25,0.229,2.5-1.23,7.625-1.25c5.125-0.021,3.125-2.025,13.125-2.021
		c7.376,0.004,7.729,6.606,5.231,9.634c-1.981,2.402-4.084,0.254-11.356,0.115C34.538,36.02,33.583,43.756,27.201,43.756z"/>
</g>
</svg>
