<?xml version="1.0" encoding="utf-8"?>
<!-- Generator: Adobe Illustrator 16.0.0, SVG Export Plug-In . SVG Version: 6.00 Build 0)  -->
<!DOCTYPE svg PUBLIC "-//W3C//DTD SVG 1.1//EN" "http://www.w3.org/Graphics/SVG/1.1/DTD/svg11.dtd">
<svg version="1.1" id="Layer_1" xmlns="http://www.w3.org/2000/svg" xmlns:xlink="http://www.w3.org/1999/xlink" x="0px" y="0px"
	 width="85.04px" height="85.04px" viewBox="0 0 85.04 85.04" enable-background="new 0 0 85.04 85.04" xml:space="preserve">
<g>
	<path fill="none" stroke="#000000" stroke-width="2" stroke-miterlimit="10" d="M26.756,56.036
		c0.031-8.906-4.063-12.625,7.719-15.844c1.849-0.504,20.782-1.531,24.032,1.094s2.125,8.5,3,14.75"/>
	<path fill="none" stroke="#000000" stroke-width="2" stroke-miterlimit="10" d="M25.952,42.786c-2.07-0.406-3.9-3.809-0.634-8.033
		c2.554-3.303,0.896,2.506,13.776,0.74c9.256-1.27,9.901-2.803,17.177-3.582c5.548-0.594,4.612,8.74,3.237,8.74
		s-10.38-0.482-16.627-1.086C32.881,38.599,28.182,43.224,25.952,42.786z"/>
	<path fill="none" stroke="#000000" stroke-width="2" stroke-miterlimit="10" d="M27.256,32.128
		c-0.719,4.658,9.081,3.174,13.563,2.908c5.874-0.348,14.813-2.813,14.813-4.375c0-2.404-2.5-1.25-7.5-1.625
		c-2.663-0.199-10.719,0.563-13,1.313C31.175,31.649,27.529,30.362,27.256,32.128z"/>
</g>
</svg>
