<?xml version="1.0" encoding="utf-8"?>
<!-- Generator: Adobe Illustrator 16.0.0, SVG Export Plug-In . SVG Version: 6.00 Build 0)  -->
<!DOCTYPE svg PUBLIC "-//W3C//DTD SVG 1.1//EN" "http://www.w3.org/Graphics/SVG/1.1/DTD/svg11.dtd">
<svg version="1.1" id="Layer_1" xmlns="http://www.w3.org/2000/svg" xmlns:xlink="http://www.w3.org/1999/xlink" x="0px" y="0px"
	 width="85.04px" height="85.04px" viewBox="0 0 85.04 85.04" enable-background="new 0 0 85.04 85.04" xml:space="preserve">
<g>
	<path fill="none" stroke="#000000" stroke-width="2" stroke-miterlimit="10" d="M13.771,43.398
		c0.438,1.188,9.658,4.157,9.747,6.596c0.149,4.1-0.56,3.717-2.06,4.904s-3.688,4.799-6.75,4.867"/>
	<path fill="none" stroke="#000000" stroke-width="2" stroke-miterlimit="10" d="M16.771,41.585c0,0,9.188,8.063,14.313,7.75
		s6.125-1.813,12.188-1.875s12.75,1.625,15.875-3.125c3.125-4.75-3.313-4.5-2.313-8.688s13.438-10.312,14.438-10.374"/>
	<path fill="none" stroke="#000000" stroke-width="2" stroke-miterlimit="10" d="M38.813,50.668c2.832,0.113,3.25,2,7.166,0.5
		c5.642-2.16,5.25-0.924,5.917,0.414c0.667,1.336-2.749,3.254-3.333,3.754s-8.417-0.668-8.917,0c-0.5,0.666-2.833,3.258-5.25,0.129
		S38.325,50.648,38.813,50.668z"/>
</g>
</svg>
