<?xml version="1.0" encoding="utf-8"?>
<!-- Generator: Adobe Illustrator 16.0.0, SVG Export Plug-In . SVG Version: 6.00 Build 0)  -->
<!DOCTYPE svg PUBLIC "-//W3C//DTD SVG 1.1//EN" "http://www.w3.org/Graphics/SVG/1.1/DTD/svg11.dtd">
<svg version="1.1" id="Layer_1" xmlns="http://www.w3.org/2000/svg" xmlns:xlink="http://www.w3.org/1999/xlink" x="0px" y="0px"
	 width="85.04px" height="85.04px" viewBox="0 0 85.04 85.04" enable-background="new 0 0 85.04 85.04" xml:space="preserve">
<g>
	<path fill="none" stroke="#000000" stroke-width="2" stroke-miterlimit="10" d="M17.518,51.411
		c7.125,0.091,10.746-0.48,13.625,3.491c1.25,1.725-9.25,9.6-16.125,8.975"/>
	<path fill="none" stroke="#000000" stroke-width="2" stroke-miterlimit="10" d="M17.768,46.252c11.875-0.25,9.639,2.59,15.875,3
		c9.5,0.625,1.233-1.592,12.5-1.75c8.874-0.125,3.875,1.86,10.374,1.75c7.125-0.121,12.988-14.735,13.363-17.61
		s-0.113-10.514-0.113-10.514"/>
	<path fill="none" stroke="#000000" stroke-width="2" stroke-miterlimit="10" d="M43.852,53.752
		c14.791,0.125,10.821-1.07,14.791-1.625c5.125-0.716,6.125,1.676,5.375,2.775s-8.25,6.975-11.749,7.225
		c-3.5,0.25-1.64-3.125-7.375-2.5c-4.604,0.502-7.944-1.234-7.875-3.375C37.096,53.797,40.178,53.721,43.852,53.752z"/>
</g>
</svg>
