<?xml version="1.0" encoding="utf-8"?>
<!-- Generator: Adobe Illustrator 16.0.0, SVG Export Plug-In . SVG Version: 6.00 Build 0)  -->
<!DOCTYPE svg PUBLIC "-//W3C//DTD SVG 1.1//EN" "http://www.w3.org/Graphics/SVG/1.1/DTD/svg11.dtd">
<svg version="1.1" xmlns="http://www.w3.org/2000/svg" xmlns:xlink="http://www.w3.org/1999/xlink" x="0px" y="0px"
	 width="374.658px" height="295.891px" viewBox="0 0 374.658 295.891" enable-background="new 0 0 374.658 295.891"
	 xml:space="preserve">
<g id="Layer_2" display="none">
	<rect x="-84.931" y="-45.89" display="inline" stroke="#000000" stroke-miterlimit="10" width="600" height="454.11"/>
</g>
<g id="Layer_1">
	<g>
		<g>
			<g>
				<path fill="#FFFFFF" d="M35.552,230.091c33.613-32.737,78.02-50.689,125.068-48.131c40.878,2.223,80.631,18.964,111.998,45.025
					c19.179,15.936,35.611,36.391,43.812,60.152c1.225,3.549,10.076,6.64,8.143,1.035c-12.016-34.819-40.025-62.431-70.455-81.902
					c-34.767-22.247-76.531-34.259-117.848-31.93c-41.282,2.327-79.217,20.987-108.624,49.627
					C24.878,226.663,32.569,232.996,35.552,230.091L35.552,230.091z"/>
			</g>
		</g>
		<g>
			<g>
				<path fill="#FFFFFF" d="M179.352,100.822c38.052,22.479,68.896,55.894,92.941,92.638c18.304,27.97,34.217,59.227,41.903,91.947
					c0.986,4.197,14.052,10.637,12.609,4.496c-8.191-34.869-25.613-68.149-45.32-97.788
					c-26.435-39.756-60.558-74.521-101.791-98.879c-1.346-0.795-6.506-2.654-6.65,0.458
					C172.896,96.92,177.039,99.456,179.352,100.822L179.352,100.822z"/>
			</g>
		</g>
		<g>
			<g>
				<path fill="#FFFFFF" d="M366.823,159.167c-37.201,0-74.402,0-111.604,0c-62.694,0-125.39,0-188.085,0
					c-19.771,0-39.541,0-59.311,0c-4.896,0-2.744,6.391,1.402,6.391c37.202,0,74.403,0,111.604,0c62.695,0,125.391,0,188.085,0
					c19.771,0,39.541,0,59.312,0C373.122,165.558,370.97,159.167,366.823,159.167L366.823,159.167z"/>
			</g>
		</g>
		<g>
			<g>
				<path fill="#A24327" d="M241.333,123.264c35.564-9.333,71.129-18.667,106.693-28c0.263-0.069-2.557-3.427-3.672-3.135
					c-35.564,9.333-71.129,18.667-106.693,28C237.398,120.198,240.218,123.556,241.333,123.264L241.333,123.264z"/>
			</g>
		</g>
		<g>
			<g>
				<path fill="#A24327" d="M319.239,28.204c-19.438,11.061-37.563,24.824-53.922,40.051c-3.455,3.216-24.488,20.873-17.072,27.209
					c2.437,2.082,5.99-1.438,3.535-3.535c-0.541-0.463,0.046,0.217,0.04,0.256c0.112-0.74,0.464-1.408,0.806-2.062
					c1.187-2.272,2.859-4.299,4.498-6.253c5.03-5.998,10.833-11.373,16.664-16.575c14.721-13.134,30.82-25.013,47.975-34.774
					C324.564,30.927,322.046,26.606,319.239,28.204L319.239,28.204z"/>
			</g>
		</g>
		<g>
			<g>
				<path fill="#A24327" d="M230.664,3.854c-2.465,47.366,9.704,95.115,38.835,133.048c23.182,30.186,55.152,52.83,91.941,62.997
					c1.784,0.493,4.18,1.344,6.068,1.073c0.52-0.074-2.888-1.381-3.236-1.478c-35.656-9.854-66.786-34.94-88.243-64.543
					c-26.961-37.195-38.014-83.243-35.646-128.746C240.455,4.816,230.676,3.622,230.664,3.854L230.664,3.854z"/>
			</g>
		</g>
	</g>
</g>
</svg>
